<svg xmlns="http://www.w3.org/2000/svg" version="1.1" xmlns:xlink="http://www.w3.org/1999/xlink" xmlns:svgjs="http://svgjs.com/svgjs" width="512" height="512" x="0" y="0" viewBox="0 0 512 512" style="enable-background:new 0 0 512 512" xml:space="preserve" class=""><g><path fill="#fee45a" d="M219.059 131.583 66.169 60.047l61.869 156.048L0 278.68l149.139 40.225L132.841 512l139.271-132.927 141.009 80.277-26.926-152.571L512 256l-112.633-57.617 43.569-130.28-124.894 59.107L259.126 0z" data-original="#fee45a" data-darkreader-inline-fill="" style="--darkreader-inline-fill: #705f01;" class=""></path><g fill="#fed402" data-darkreader-inline-fill="" style="--darkreader-inline-fill: #987f01;"><path d="m368.462 181.642 31.171 15.946 43.303-129.485zM512 256l-156.71 34.038 57.831 169.312-26.925-152.571z" fill="#fed402" data-original="#fed402" data-darkreader-inline-fill="" style="--darkreader-inline-fill: #987f01;"></path></g><g fill="#ffc344" data-darkreader-inline-fill="" style="--darkreader-inline-fill: #7a5300;"><path d="m506.301 135.647-7.194 20.603L512 173.857l-21.818-.476-12.76 17.703-6.29-20.897-20.78-6.666 17.931-12.439-.082-21.823 17.371 13.209zM284.204 504.654l-12.782-17.688-21.817.502 12.872-17.622-7.219-20.594 20.738 6.797 17.355-13.23-.056 21.823 17.945 12.418-20.772 6.69zM12.365 393.899l25.72-22.55-3.995-33.971 29.394 17.493 31.074-14.297-7.554 33.361 23.2 25.135-34.062 3.125-16.736 29.832-13.498-31.43zM322.13 17.536l24.326 1.597L361.562 0l5.998 23.629 22.865 8.455-20.619 13.006-.976 24.358-18.74-15.591-23.468 6.6 9.036-22.641z" fill="#ffc344" data-original="#ffc344" data-darkreader-inline-fill="" style="--darkreader-inline-fill: #7a5300;"></path></g><g fill="#fff" data-darkreader-inline-fill="" style="--darkreader-inline-fill: #181a1b;"><circle cx="208.6" cy="248.53" r="15.691" fill="#ffffff" data-original="#ffffff" data-darkreader-inline-fill="" style="--darkreader-inline-fill: #e8e6e3;"></circle><circle cx="265.271" cy="248.53" r="15.691" fill="#ffffff" data-original="#ffffff" data-darkreader-inline-fill="" style="--darkreader-inline-fill: #e8e6e3;"></circle><circle cx="321.942" cy="248.53" r="15.691" fill="#ffffff" data-original="#ffffff" data-darkreader-inline-fill="" style="--darkreader-inline-fill: #e8e6e3;"></circle></g></g></svg>